<?xml version="1.0" encoding="UTF-8" standalone="no"?>
<!DOCTYPE svg PUBLIC "-//W3C//DTD SVG 1.1//EN" "http://www.w3.org/Graphics/SVG/1.1/DTD/svg11.dtd">
<svg width="100%" height="100%" viewBox="0 0 745 821" version="1.1" xmlns="http://www.w3.org/2000/svg" xmlns:xlink="http://www.w3.org/1999/xlink" xml:space="preserve" xmlns:serif="http://www.serif.com/" style="fill-rule:evenodd;clip-rule:evenodd;stroke-linejoin:round;stroke-miterlimit:2;">
    <g transform="matrix(1,0,0,1,-265.43565,-217.222149)">
        <g id="Background" transform="matrix(1.224609,0,0,1.224609,0,0)">
            <path d="M218.155,433.471C219.759,418.899 221.249,398.229 232.665,364.554C273.235,244.882 381.429,177.853 491.5,177.679C563.231,177.567 634.681,170.825 711.828,228.055C884.393,356.07 848.457,637.328 673.329,728.163C605.268,763.465 557.835,758.303 473.5,758.431C419.73,758.512 386.001,758.241 384.548,758.658C380.963,759.688 332.869,838.196 244.46,846.164C222.713,848.124 217.064,848.602 217.099,833.493C217.456,676.625 214.926,675.312 219.768,670.77C222.485,668.221 223.084,668.666 317.5,668.66C354.833,668.657 358.482,670.917 371.16,651.265C400.519,605.757 401,603.321 404.556,605.425C405.813,606.168 425.891,652.967 428.68,657.396C436.588,669.956 444.061,668.836 488.501,668.674C497.301,668.642 560.447,668.411 598.498,668.613C607.162,668.659 592.937,679.296 577.554,695.551C560.684,713.376 580.749,739.277 599.289,729.113C604.34,726.344 669.751,676.539 675.834,671.908C694.64,657.589 706.961,652.369 700.731,640.372C698.754,636.564 609.894,557.476 600.106,548.924C577.353,529.045 557.983,552.176 563.619,570.458C565.046,575.088 565.229,575.681 600.036,618.858C606.057,626.327 597.107,624.934 576.497,624.918C465.143,624.833 464.834,625.228 462.429,623.586C460.798,622.473 427.901,550.323 425.178,544.66C421.961,537.967 412.298,532.512 403.555,533.826C388.947,536.021 384.186,551.986 360.875,585.754C345.887,607.465 337.668,624.366 332.539,624.819C326.24,625.376 326.251,624.965 253.498,624.887C223.436,624.855 217.085,627.186 217.09,614.504C217.158,450.115 216.851,450.112 218.155,433.471ZM540.527,458.81C489.904,461.261 485.641,430.78 473.821,443.801C460.681,458.275 508.962,511.555 561.183,474.089C578.006,462.02 574.009,449.464 562.49,453.472C557.898,455.069 553.432,457.213 540.527,458.81ZM498.403,340.612L499.124,338.534C497.809,334.438 488.87,299.209 451.523,297.074C404.129,294.366 376.431,362.158 420.713,397.213C427.615,402.677 444.563,409.281 460.395,405.109C463.837,404.202 472.4,402.467 485.007,391.121C485.141,391.001 485.468,390.706 485.612,388.954C443.078,400.632 438.888,329.875 477.505,329.23C489.791,329.026 497.267,339.084 498.403,340.612ZM650.055,340.733C649.791,339.533 650.921,335.537 643.242,321.644C622.808,284.678 561.583,289.096 551.21,340.442C542.182,385.13 589.887,429.825 634.04,393.008C637.687,389.968 636.776,389.301 636.452,389.133C636.158,388.98 635.784,389.539 635.49,389.386C591.236,398.256 592.733,327.412 629.504,329.324C643.171,330.034 649.99,340.656 650.055,340.733Z" style="fill:rgb(247,39,25);"/>
            <path d="M650.055,340.733C651.119,345.21 654.014,354.419 648.045,372.352C643.422,386.242 637.063,388.762 635.49,389.386C591.236,398.256 592.733,327.412 629.504,329.324C643.171,330.034 649.99,340.656 650.055,340.733Z" style="fill:rgb(19,18,18);"/>
            <path d="M498.403,340.612C504.967,351.607 495.812,384.227 485.612,388.954C443.078,400.632 438.888,329.875 477.505,329.23C489.791,329.026 497.267,339.084 498.403,340.612Z" style="fill:rgb(19,18,18);"/>
        </g>
    </g>
</svg>
